<?xml version="1.0" standalone="no"?><!DOCTYPE svg PUBLIC "-//W3C//DTD SVG 1.1//EN" "http://www.w3.org/Graphics/SVG/1.1/DTD/svg11.dtd"><svg t="1725027263961" class="icon" viewBox="0 0 1083 1024" version="1.1" xmlns="http://www.w3.org/2000/svg" p-id="14831" width="50.765625" height="48" xmlns:xlink="http://www.w3.org/1999/xlink"><path d="M1075.68238 532.082248L718.568727 172.78519V71.790017h134.389422v203.022809c0 10.341554 8.335868 18.719736 18.601256 18.719736 10.273851 0 18.601256-8.378182 18.601256-18.711273V53.078744a18.660496 18.660496 0 0 0-18.601256-18.711273H699.967471c-10.273851 0-18.601256 8.378182-18.601256 18.70281v82.292364L553.721653 6.939504a18.533554 18.533554 0 0 0-26.302413 0L372.52443 162.75676a18.787438 18.787438 0 0 0 0 26.463207c7.261091 7.311868 19.041322 7.311868 26.302413 0L540.561983 46.630083 686.757025 193.696793l0.15233 0.152331 204.148364 205.392397v585.88033H525.963636v-429.910744a18.660496 18.660496 0 0 0-18.609719-18.702809H255.272198c-10.273851 0-18.601256 8.378182-18.601256 18.702809v429.919207H190.074711v-585.880331L352.569124 235.773884a18.787438 18.787438 0 0 0 0-26.463206 18.516628 18.516628 0 0 0-26.302413 0L5.441587 532.082248a18.787438 18.787438 0 0 0 0 26.463207 18.49124 18.49124 0 0 0 26.310876 0l121.128198-121.864463v567.160595c0 10.333091 8.327405 18.711273 18.592794 18.711273h738.177057c10.265388 0 18.592793-8.378182 18.592794-18.711273V436.672529L1049.38843 558.545455a18.49124 18.49124 0 0 0 26.29395 0 18.787438 18.787438 0 0 0 0-26.463207z m-586.921256 453.048066H273.856529v-411.207934h214.896132v411.207934z" fill="#2053D1" p-id="14832"></path><path d="M838.994512 536.499835H586.895868c-10.273851 0-18.601256 8.378182-18.601256 18.711272v253.630414c0 10.333091 8.327405 18.711273 18.601256 18.711272h252.090182c10.265388 0 18.592793-8.378182 18.592793-18.70281v-253.630413a18.660496 18.660496 0 0 0-18.592793-18.719735z m-144.646347 253.630413H605.497124V700.737587h88.851041v89.392661z m0-126.815207H605.497124V573.92238h88.851041V663.315041zM820.384793 790.130248H731.542215V700.737587h88.851041v89.392661z m0-126.815207H731.542215V573.92238h88.851041V663.315041zM622.405818 233.480463h-163.670744c-10.265388 0-18.592793 8.378182-18.592793 18.70281v164.677818c0 10.324628 8.327405 18.70281 18.601256 18.70281h163.670744c10.265388 0 18.592793-8.378182 18.592793-18.70281V252.191736a18.660496 18.660496 0 0 0-18.601256-18.711273zM603.821488 398.141355H477.344793V270.903008h126.468232v127.238347z" fill="#2053D1" p-id="14833"></path><path d="M423.622876 778.612364a18.711273 18.601256 90 1 0 37.202512 0 18.711273 18.601256 90 1 0-37.202512 0Z" fill="#2053D1" p-id="14834"></path></svg>