<?xml version="1.0" standalone="no"?><!DOCTYPE svg PUBLIC "-//W3C//DTD SVG 1.1//EN" "http://www.w3.org/Graphics/SVG/1.1/DTD/svg11.dtd"><svg t="1725027424537" class="icon" viewBox="0 0 1024 1024" version="1.1" xmlns="http://www.w3.org/2000/svg" p-id="19035" xmlns:xlink="http://www.w3.org/1999/xlink" width="48" height="48"><path d="M925.3888 25.088l92.16 92.16a23.7568 23.7568 0 0 1 0 32.6656L872.448 331.264a23.2448 23.2448 0 0 1-32.9728 3.072 12.288 12.288 0 0 1-2.1504-1.9456L800.8704 296.96 620.1344 477.696 911.5648 768.6144a138.8544 138.8544 0 0 1-196.608 196.096L536.2688 785.92 346.2144 975.872a101.2736 101.2736 0 0 1-71.68 29.3888 102.4 102.4 0 0 1-71.68-29.696L67.3792 840.8064a102.4 102.4 0 0 1-30.1056-71.68V768a102.4 102.4 0 0 1 30.1056-71.68l189.44-189.1328-17.8176-18.1248a244.3264 244.3264 0 0 1-104.6528-6.5536 234.496 234.496 0 0 1-100.352-59.8016 209.3056 209.3056 0 0 1-29.3888-35.7376A21.1968 21.1968 0 0 1 0.2048 373.5552a23.3472 23.3472 0 0 1 23.3472-23.3472h149.0944l27.9552-47.104 27.2384-48.0256-27.2384-47.7184-27.9552-47.4112H23.552a20.48 20.48 0 0 1-13.1072-4.096 23.3472 23.3472 0 0 1-6.5536-32.3584c4.096-5.7344 8.192-11.264 13.1072-17.3056h0.512v-1.1264c5.5296-5.4272 10.24-11.4688 15.9744-16.9984A237.1584 237.1584 0 0 1 368.8448 87.552a232.6528 232.6528 0 0 1 60.0064 100.6592 248.6272 248.6272 0 0 1 6.5536 104.448l75.9808 76.8 53.76 53.76L746.2912 241.664 709.5296 204.8a23.3472 23.3472 0 0 1 0-32.3584l2.1504-2.1504L894.0544 23.6544a23.8592 23.8592 0 0 1 31.3344 1.4336z m-186.7776 636.928a69.632 69.632 0 0 1-17.3056 25.7024l-29.7984 30.72a74.6496 74.6496 0 0 1-52.1216 21.6064 71.68 71.68 0 0 1-43.3152-13.7216l-26.9312 26.9312L747.7248 931.84a92.16 92.16 0 1 0 130.7648-130.56l-139.8784-139.264zM289.4848 474.112l27.4432-27.3408a71.68 71.68 0 0 1-14.0288-43.008 75.8784 75.8784 0 0 1 21.7088-52.736l29.9008-30.1056a79.6672 79.6672 0 0 1 32.3584-18.944 17.5104 17.5104 0 0 1 1.024-7.9872 198.656 198.656 0 0 0-3.584-92.16A191.2832 191.2832 0 0 0 73.9328 113.3568h112.64a22.3232 22.3232 0 0 1 19.7632 11.9808L240.64 184.32l33.792 59.1872a21.6064 21.6064 0 0 1 0 22.8352l-33.792 59.1872-34.5088 59.4944a22.528 22.528 0 0 1-19.7632 11.776H73.9328a191.6928 191.6928 0 0 0 167.5264 44.4416 22.3232 22.3232 0 0 1 21.4016 6.656l26.624 26.2144z m464.7936 333.7216a75.9808 75.9808 0 0 0 0 106.0864 75.0592 75.0592 0 1 0 0-106.0864z m32.5632 32.9728a29.9008 29.9008 0 0 1 40.96 0 28.16 28.16 0 0 1 0 40.2432 28.5696 28.5696 0 0 1-40.96 0 28.2624 28.2624 0 0 1 0-40.2432zM407.1424 515.2768a22.8352 22.8352 0 0 1 32.8704 0 22.3232 22.3232 0 0 1 0 32.8704L196.5056 791.6544a23.7568 23.7568 0 0 1-32.8704 0 24.3712 24.3712 0 0 1 0-32.8704l243.5072-243.5072z m87.9616 87.4496a23.1424 23.1424 0 1 1 32.8704 32.6656L284.5696 878.592a23.3472 23.3472 0 0 1-32.8704 0 22.1184 22.1184 0 0 1 0-32.6656l243.4048-243.2z m169.7792 32.6656L407.1424 377.9584l-25.8048 25.8048c5.5296 5.7344 10.9568 11.1616 16.6912 16.0768a40.0384 40.0384 0 0 1 0 55.3984L122.2656 751.104a21.504 21.504 0 0 0-7.68 16.896 22.8352 22.8352 0 0 0 7.68 17.6128L256.2048 920.576a24.4736 24.4736 0 0 0 17.6128 7.68 26.5216 26.5216 0 0 0 17.7152-8.192Q430.2848 782.336 568.0128 645.12a37.6832 37.6832 0 0 1 54.5792 0c5.7344 5.0176 10.24 10.752 16.7936 16.1792l25.4976-26.0096z m305.152-499.6096L907.264 72.704 760.5248 190.0544l91.5456 92.16 117.9648-146.432z" p-id="19036" fill="#2053D1"></path></svg>