<?xml version="1.0" standalone="no"?><!DOCTYPE svg PUBLIC "-//W3C//DTD SVG 1.1//EN" "http://www.w3.org/Graphics/SVG/1.1/DTD/svg11.dtd"><svg t="1725028590683" class="icon" viewBox="0 0 1024 1024" version="1.1" xmlns="http://www.w3.org/2000/svg" p-id="21491" width="128" height="128" xmlns:xlink="http://www.w3.org/1999/xlink"><path d="M906.75617 898.629995a12.409834 12.409834 0 1 1 11.235179-12.354139 11.827569 11.827569 0 0 1-11.235179 12.354139z m0-125.465395a12.495908 12.495908 0 1 1 11.235179-12.455403 11.888327 11.888327 0 0 1-11.235179 12.455403z m0-125.465396a12.409834 12.409834 0 1 1 11.235179-12.354139 11.863011 11.863011 0 0 1-11.235179 12.354139z m0-121.21233a12.409834 12.409834 0 1 1 11.235179-12.354139 11.827569 11.827569 0 0 1-11.235179 12.354139z m0-125.313501a12.409834 12.409834 0 1 1 11.235179-12.354139 11.827569 11.827569 0 0 1-11.235179 12.354139z m0-125.465395a12.409834 12.409834 0 1 1 11.235179-12.354139 11.827569 11.827569 0 0 1-11.235179 12.354139z m0-125.465395a12.328823 12.328823 0 1 1 11.235179-12.303507 11.81238 11.81238 0 0 1-11.235179 12.303507z m0-125.3135a12.495908 12.495908 0 1 1 11.235179-12.455403 11.888327 11.888327 0 0 1-11.235179 12.455403z m-111.941663 999.014412a12.399708 12.399708 0 1 1 11.311126-12.354139 11.863011 11.863011 0 0 1-11.311126 12.354139z m0-125.3135a12.399708 12.399708 0 1 1 11.311126-12.354139 11.863011 11.863011 0 0 1-11.311126 12.354139z m0-125.465395a12.485781 12.485781 0 1 1 11.311126-12.455403 11.923769 11.923769 0 0 1-11.311126 12.455403z m0-125.465396a12.399708 12.399708 0 1 1 11.311126-12.354139 11.89339 11.89339 0 0 1-11.311126 12.354139z m0-121.21233a12.399708 12.399708 0 1 1 11.311126-12.354139 11.863011 11.863011 0 0 1-11.311126 12.354139z m0-125.313501a12.399708 12.399708 0 1 1 11.311126-12.354139 11.863011 11.863011 0 0 1-11.311126 12.354139z m0-125.465395A12.399708 12.399708 0 1 1 806.125633 263.353839a11.863011 11.863011 0 0 1-11.311126 12.354139z m0-125.465395a12.318697 12.318697 0 1 1 11.311126-12.303507 11.847822 11.847822 0 0 1-11.311126 12.303507z m0-125.3135a12.485781 12.485781 0 1 1 11.311126-12.455403 11.923769 11.923769 0 0 1-11.311126 12.455403z m-114.316291 999.014412a12.409834 12.409834 0 1 1 11.230115-12.354139 11.827569 11.827569 0 0 1-11.230115 12.354139z m0-125.3135a12.409834 12.409834 0 1 1 11.230115-12.354139 11.827569 11.827569 0 0 1-11.230115 12.354139z m0-125.465395a12.495908 12.495908 0 1 1 11.230115-12.455403 11.888327 11.888327 0 0 1-11.230115 12.455403z m0-125.465396a12.409834 12.409834 0 1 1 11.230115-12.354139 11.857948 11.857948 0 0 1-11.230115 12.354139z m0-121.21233a12.409834 12.409834 0 1 1 11.230115-12.354139 11.827569 11.827569 0 0 1-11.230115 12.354139z m0-125.313501a12.409834 12.409834 0 1 1 11.230115-12.354139 11.827569 11.827569 0 0 1-11.230115 12.354139z m0-125.465395a12.409834 12.409834 0 1 1 11.230115-12.354139 11.827569 11.827569 0 0 1-11.230115 12.354139z m0-125.465395a12.328823 12.328823 0 1 1 11.230115-12.303507 11.81238 11.81238 0 0 1-11.230115 12.303507z m0-125.3135a12.495908 12.495908 0 1 1 11.230115-12.455403 11.888327 11.888327 0 0 1-11.230115 12.455403zM566.100914 1023.943495a12.409834 12.409834 0 1 1 11.230115-12.354139 11.827569 11.827569 0 0 1-11.230115 12.354139z m0-125.3135a12.409834 12.409834 0 1 1 11.230115-12.354139 11.827569 11.827569 0 0 1-11.230115 12.354139z m0-125.465395a12.495908 12.495908 0 1 1 11.230115-12.455403 11.888327 11.888327 0 0 1-11.230115 12.455403z m0-125.465396a12.409834 12.409834 0 1 1 11.230115-12.354139 11.857948 11.857948 0 0 1-11.230115 12.354139z m0-121.21233a12.409834 12.409834 0 1 1 11.230115-12.354139 11.827569 11.827569 0 0 1-11.230115 12.354139z m0-125.313501a12.409834 12.409834 0 1 1 11.230115-12.354139 11.827569 11.827569 0 0 1-11.230115 12.354139z m0-125.465395A12.409834 12.409834 0 1 1 577.331029 263.353839a11.827569 11.827569 0 0 1-11.230115 12.354139z m0-125.465395a12.328823 12.328823 0 1 1 11.230115-12.303507 11.81238 11.81238 0 0 1-11.230115 12.303507z m0-125.3135a12.495908 12.495908 0 1 1 11.230115-12.455403 11.888327 11.888327 0 0 1-11.230115 12.455403z m-112.908729 999.014412a12.399708 12.399708 0 1 1 11.311125-12.354139 11.863011 11.863011 0 0 1-11.295936 12.354139z m0-125.3135a12.399708 12.399708 0 1 1 11.311125-12.354139 11.863011 11.863011 0 0 1-11.295936 12.354139z m0-125.465395a12.485781 12.485781 0 1 1 11.311125-12.455403 11.923769 11.923769 0 0 1-11.295936 12.455403z m0-125.465396a12.399708 12.399708 0 1 1 11.311125-12.354139 11.89339 11.89339 0 0 1-11.295936 12.354139z m0-121.21233a12.399708 12.399708 0 1 1 11.311125-12.354139 11.863011 11.863011 0 0 1-11.295936 12.354139z m0-125.313501a12.399708 12.399708 0 1 1 11.311125-12.354139 11.863011 11.863011 0 0 1-11.295936 12.354139z m0-125.465395A12.399708 12.399708 0 1 1 464.50331 263.353839a11.863011 11.863011 0 0 1-11.295936 12.354139z m0-125.465395a12.318697 12.318697 0 1 1 11.311125-12.303507 11.847822 11.847822 0 0 1-11.295936 12.303507z m0-125.3135a12.485781 12.485781 0 1 1 11.311125-12.455403 11.923769 11.923769 0 0 1-11.295936 12.455403zM343.620085 1023.943495a12.409834 12.409834 0 1 1 11.235178-12.354139 11.822506 11.822506 0 0 1-11.219988 12.354139z m0-125.3135a12.409834 12.409834 0 1 1 11.235178-12.354139 11.822506 11.822506 0 0 1-11.219988 12.354139z m0-125.465395a12.495908 12.495908 0 1 1 11.235178-12.455403 11.888327 11.888327 0 0 1-11.219988 12.455403z m0-125.465396a12.409834 12.409834 0 1 1 11.235178-12.354139 11.857948 11.857948 0 0 1-11.219988 12.354139z m0-121.21233a12.409834 12.409834 0 1 1 11.235178-12.354139 11.822506 11.822506 0 0 1-11.219988 12.354139z m0-125.313501a12.409834 12.409834 0 1 1 11.235178-12.354139 11.822506 11.822506 0 0 1-11.219988 12.354139z m0-125.465395A12.409834 12.409834 0 1 1 354.855263 263.353839a11.822506 11.822506 0 0 1-11.219988 12.354139z m0-125.465395a12.328823 12.328823 0 1 1 11.235178-12.303507 11.81238 11.81238 0 0 1-11.219988 12.303507z m0-125.3135a12.495908 12.495908 0 1 1 11.235178-12.455403 11.888327 11.888327 0 0 1-11.219988 12.455403zM229.065825 1023.943495a12.394644 12.394644 0 1 1 11.392137-12.354139 11.898454 11.898454 0 0 1-11.376947 12.354139z m0-125.3135a12.394644 12.394644 0 1 1 11.392137-12.354139 11.898454 11.898454 0 0 1-11.376947 12.354139z m0-125.465395a12.475655 12.475655 0 1 1 11.392137-12.455403 11.959212 11.959212 0 0 1-11.376947 12.455403z m0-125.465396a12.394644 12.394644 0 1 1 11.392137-12.354139 11.928833 11.928833 0 0 1-11.376947 12.354139z m0-121.21233a12.394644 12.394644 0 1 1 11.392137-12.354139 11.898454 11.898454 0 0 1-11.376947 12.354139z m0-125.313501a12.394644 12.394644 0 1 1 11.392137-12.354139 11.898454 11.898454 0 0 1-11.376947 12.354139z m0-125.465395a12.394644 12.394644 0 1 1 11.392137-12.354139 11.898454 11.898454 0 0 1-11.376947 12.354139z m0-125.465395a12.313634 12.313634 0 1 1 11.392137-12.303507 11.883264 11.883264 0 0 1-11.376947 12.303507z m0-125.3135a12.475655 12.475655 0 1 1 11.392137-12.455403 11.959212 11.959212 0 0 1-11.376947 12.455403zM117.362131 1023.943495a12.409834 12.409834 0 1 1 11.230115-12.354139 11.827569 11.827569 0 0 1-11.214926 12.354139z m0-125.3135a12.409834 12.409834 0 1 1 11.230115-12.354139 11.827569 11.827569 0 0 1-11.214926 12.354139z m0-125.465395a12.495908 12.495908 0 1 1 11.230115-12.455403 11.888327 11.888327 0 0 1-11.214926 12.455403z m0-125.465396a12.409834 12.409834 0 1 1 11.230115-12.354139 11.857948 11.857948 0 0 1-11.214926 12.354139z m0-121.21233a12.409834 12.409834 0 1 1 11.230115-12.354139 11.827569 11.827569 0 0 1-11.214926 12.354139z m0-125.313501a12.409834 12.409834 0 1 1 11.230115-12.354139 11.827569 11.827569 0 0 1-11.214926 12.354139z m0-125.465395A12.409834 12.409834 0 1 1 128.592246 263.353839a11.827569 11.827569 0 0 1-11.214926 12.354139z m0-125.465395a12.328823 12.328823 0 1 1 11.230115-12.303507 11.81238 11.81238 0 0 1-11.214926 12.303507z m0-125.3135a12.495908 12.495908 0 1 1 11.230115-12.455403 11.888327 11.888327 0 0 1-11.214926 12.455403z m789.37885 974.306134a12.409834 12.409834 0 1 1-11.235178 12.354139 11.863011 11.863011 0 0 1 11.250367-12.354139z" fill="#e6e6e6" p-id="21492"></path></svg>