<?xml version="1.0" standalone="no"?><!DOCTYPE svg PUBLIC "-//W3C//DTD SVG 1.1//EN" "http://www.w3.org/Graphics/SVG/1.1/DTD/svg11.dtd"><svg t="1725029185066" class="icon" viewBox="0 0 2463 1024" version="1.1" xmlns="http://www.w3.org/2000/svg" p-id="51222" xmlns:xlink="http://www.w3.org/1999/xlink" width="307.875" height="128"><path d="M18.559769 0A18.50857 18.50857 0 1 1 0 18.50857 18.559769 18.559769 0 0 1 18.559769 0z m142.391829 0a18.50857 18.50857 0 1 1-18.559769 18.50857A18.559769 18.559769 0 0 1 160.964398 0z m142.385429 0a18.50857 18.50857 0 1 1-18.559769 18.50857A18.559769 18.559769 0 0 1 303.356227 0z m142.391829 0a18.50857 18.50857 0 1 1-18.559769 18.50857A18.559769 18.559769 0 0 1 445.741656 0z m142.391829 0a18.50857 18.50857 0 1 1-18.559769 18.50857A18.559769 18.559769 0 0 1 588.152685 0z m142.391829 0a18.50857 18.50857 0 1 1-18.559769 18.50857A18.559769 18.559769 0 0 1 730.525314 0z m142.385429 0a18.50857 18.50857 0 1 1-18.559769 18.50857A18.559769 18.559769 0 0 1 872.910743 0z m142.391829 0a18.50857 18.50857 0 1 1-18.559769 18.50857A18.559769 18.559769 0 0 1 1015.302572 0z m142.391829 0a18.50857 18.50857 0 1 1-18.559769 18.50857A18.559769 18.559769 0 0 1 1157.694401 0z m148.580552 0a18.50857 18.50857 0 1 1-18.559769 18.50857A18.559769 18.559769 0 0 1 1306.274953 0z m142.391829 0a18.50857 18.50857 0 1 1-18.559769 18.50857A18.559769 18.559769 0 0 1 1448.666782 0z m142.391829 0a18.50857 18.50857 0 1 1-18.559769 18.50857A18.559769 18.559769 0 0 1 1591.058611 0z m142.385429 0a18.50857 18.50857 0 1 1-18.559769 18.50857A18.559769 18.559769 0 0 1 1733.44404 0z m142.391829 0a18.50857 18.50857 0 1 1-18.559769 18.50857A18.559769 18.559769 0 0 1 1875.81667 0z m142.391829 0a18.50857 18.50857 0 1 1-18.559769 18.50857A18.559769 18.559769 0 0 1 2018.227698 0z m142.391829 0a18.50857 18.50857 0 1 1-18.559769 18.50857A18.559769 18.559769 0 0 1 2160.613127 0z m142.38543 0a18.50857 18.50857 0 1 1-18.55977 18.50857A18.559769 18.559769 0 0 1 2303.004956 0z m142.391829 0a18.50857 18.50857 0 1 1-18.55977 18.50857A18.559769 18.559769 0 0 1 2445.409585 0zM18.559769 141.879835A18.50857 18.50857 0 1 1 0 160.382005a18.559769 18.559769 0 0 1 18.559769-18.50217z m142.391829 0a18.50857 18.50857 0 1 1-18.559769 18.50217 18.559769 18.559769 0 0 1 18.572569-18.50217z m142.385429 0a18.50857 18.50857 0 1 1-18.559769 18.50217 18.559769 18.559769 0 0 1 18.578969-18.50217z m142.391829 0a18.50857 18.50857 0 1 1-18.559769 18.50217 18.559769 18.559769 0 0 1 18.572569-18.50217z m142.391829 0a18.50857 18.50857 0 1 1-18.559769 18.50217 18.559769 18.559769 0 0 1 18.591769-18.50217z m142.391829 0a18.50857 18.50857 0 1 1-18.559769 18.50217 18.559769 18.559769 0 0 1 18.572569-18.50217z m142.385429 0a18.50857 18.50857 0 1 1-18.559769 18.50217 18.559769 18.559769 0 0 1 18.572569-18.50217z m142.391829 0a18.50857 18.50857 0 1 1-18.559769 18.50217 18.559769 18.559769 0 0 1 18.572569-18.50217z m142.391829 0a18.50857 18.50857 0 1 1-18.559769 18.50217 18.559769 18.559769 0 0 1 18.572569-18.50217z m148.580552 0a18.50857 18.50857 0 1 1-18.559769 18.50217 18.559769 18.559769 0 0 1 18.572569-18.50217z m142.391829 0a18.50857 18.50857 0 1 1-18.559769 18.50217 18.559769 18.559769 0 0 1 18.572569-18.50217z m142.391829 0a18.50857 18.50857 0 1 1-18.559769 18.50217 18.559769 18.559769 0 0 1 18.572569-18.50217z m142.385429 0a18.50857 18.50857 0 1 1-18.559769 18.50217 18.559769 18.559769 0 0 1 18.572569-18.50217z m142.391829 0a18.50857 18.50857 0 1 1-18.559769 18.50217 18.559769 18.559769 0 0 1 18.55337-18.50217z m142.391829 0a18.50857 18.50857 0 1 1-18.559769 18.50217 18.559769 18.559769 0 0 1 18.572569-18.50217z m142.391829 0a18.50857 18.50857 0 1 1-18.559769 18.50217 18.559769 18.559769 0 0 1 18.566169-18.50217z m142.38543 0a18.50857 18.50857 0 1 1-18.55977 18.50217 18.559769 18.559769 0 0 1 18.572569-18.50217z m142.391829 0a18.50857 18.50857 0 1 1-18.55977 18.50217 18.559769 18.559769 0 0 1 18.585369-18.50217zM18.559769 283.753271A18.50857 18.50857 0 1 1 0 302.261841a18.559769 18.559769 0 0 1 18.559769-18.50857z m142.391829 0a18.50857 18.50857 0 1 1-18.559769 18.50857 18.559769 18.559769 0 0 1 18.572569-18.50857z m142.385429 0a18.50857 18.50857 0 1 1-18.559769 18.50857 18.559769 18.559769 0 0 1 18.578969-18.50857z m142.391829 0a18.50857 18.50857 0 1 1-18.559769 18.50857 18.559769 18.559769 0 0 1 18.572569-18.50857z m142.391829 0a18.50857 18.50857 0 1 1-18.559769 18.50857 18.559769 18.559769 0 0 1 18.591769-18.50857z m142.391829 0a18.50857 18.50857 0 1 1-18.559769 18.50857 18.559769 18.559769 0 0 1 18.572569-18.50857z m142.385429 0a18.50857 18.50857 0 1 1-18.559769 18.50857 18.559769 18.559769 0 0 1 18.572569-18.50857z m142.391829 0a18.50857 18.50857 0 1 1-18.559769 18.50857 18.559769 18.559769 0 0 1 18.572569-18.50857z m142.391829 0a18.50857 18.50857 0 1 1-18.559769 18.50857 18.559769 18.559769 0 0 1 18.572569-18.50857z m148.580552 0a18.50857 18.50857 0 1 1-18.559769 18.50857 18.559769 18.559769 0 0 1 18.572569-18.50857z m142.391829 0a18.50857 18.50857 0 1 1-18.559769 18.50857 18.559769 18.559769 0 0 1 18.572569-18.50857z m142.391829 0a18.50857 18.50857 0 1 1-18.559769 18.50857 18.559769 18.559769 0 0 1 18.572569-18.50857z m142.385429 0a18.50857 18.50857 0 1 1-18.559769 18.50857 18.559769 18.559769 0 0 1 18.572569-18.50857z m142.391829 0a18.50857 18.50857 0 1 1-18.559769 18.50857 18.559769 18.559769 0 0 1 18.55337-18.50857z m142.391829 0a18.50857 18.50857 0 1 1-18.559769 18.50857 18.559769 18.559769 0 0 1 18.572569-18.50857z m142.391829 0a18.50857 18.50857 0 1 1-18.559769 18.50857 18.559769 18.559769 0 0 1 18.566169-18.50857z m142.38543 0a18.50857 18.50857 0 1 1-18.55977 18.50857 18.559769 18.559769 0 0 1 18.572569-18.50857z m142.391829 0a18.50857 18.50857 0 1 1-18.55977 18.50857 18.559769 18.559769 0 0 1 18.585369-18.50857zM18.559769 425.633106A18.50857 18.50857 0 1 1 0 444.154476a18.559769 18.559769 0 0 1 18.559769-18.52137z m142.391829 0a18.50857 18.50857 0 1 1-18.559769 18.50857 18.559769 18.559769 0 0 1 18.572569-18.50857z m142.385429 0a18.50857 18.50857 0 1 1-18.559769 18.50857 18.559769 18.559769 0 0 1 18.578969-18.50857z m142.391829 0a18.50857 18.50857 0 1 1-18.559769 18.50857 18.559769 18.559769 0 0 1 18.572569-18.50857z m142.391829 0A18.50857 18.50857 0 1 1 569.592916 444.154476a18.559769 18.559769 0 0 1 18.559769-18.52137z m142.391829 0a18.50857 18.50857 0 1 1-18.559769 18.50857 18.559769 18.559769 0 0 1 18.572569-18.50857z m142.385429 0a18.50857 18.50857 0 1 1-18.559769 18.50857 18.559769 18.559769 0 0 1 18.572569-18.50857z m142.391829 0a18.50857 18.50857 0 1 1-18.559769 18.50857 18.559769 18.559769 0 0 1 18.572569-18.50857z m142.391829 0a18.50857 18.50857 0 1 1-18.559769 18.50857 18.559769 18.559769 0 0 1 18.572569-18.50857z m148.580552 0a18.50857 18.50857 0 1 1-18.559769 18.50857 18.559769 18.559769 0 0 1 18.572569-18.50857z m142.391829 0a18.50857 18.50857 0 1 1-18.559769 18.50857 18.559769 18.559769 0 0 1 18.572569-18.50857z m142.391829 0a18.50857 18.50857 0 1 1-18.559769 18.50857 18.559769 18.559769 0 0 1 18.572569-18.50857z m142.385429 0a18.50857 18.50857 0 1 1-18.559769 18.50857 18.559769 18.559769 0 0 1 18.572569-18.50857z m142.391829 0a18.50857 18.50857 0 1 1-18.559769 18.50857 18.559769 18.559769 0 0 1 18.55337-18.50857z m142.391829 0a18.50857 18.50857 0 1 1-18.559769 18.50857 18.559769 18.559769 0 0 1 18.572569-18.50857z m142.391829 0a18.50857 18.50857 0 1 1-18.559769 18.50857 18.559769 18.559769 0 0 1 18.566169-18.50857z m142.38543 0a18.50857 18.50857 0 1 1-18.55977 18.50857 18.559769 18.559769 0 0 1 18.572569-18.50857z m142.391829 0a18.50857 18.50857 0 1 1-18.55977 18.50857 18.559769 18.559769 0 0 1 18.585369-18.50857zM18.559769 561.343418A18.50857 18.50857 0 1 1 0 579.832788a18.559769 18.559769 0 0 1 18.559769-18.48937z m142.391829 0a18.50857 18.50857 0 1 1-18.559769 18.50217 18.559769 18.559769 0 0 1 18.572569-18.50217z m142.385429 0a18.50857 18.50857 0 1 1-18.559769 18.50217 18.559769 18.559769 0 0 1 18.578969-18.50217z m142.391829 0a18.50857 18.50857 0 1 1-18.559769 18.50217 18.559769 18.559769 0 0 1 18.572569-18.50217z m142.391829 0A18.50857 18.50857 0 1 1 569.592916 579.832788a18.559769 18.559769 0 0 1 18.559769-18.48937z m142.391829 0a18.50857 18.50857 0 1 1-18.559769 18.50217 18.559769 18.559769 0 0 1 18.572569-18.50217z m142.385429 0a18.50857 18.50857 0 1 1-18.559769 18.50217 18.559769 18.559769 0 0 1 18.572569-18.50217z m142.391829 0a18.50857 18.50857 0 1 1-18.559769 18.50217 18.559769 18.559769 0 0 1 18.572569-18.50217z m142.391829 0a18.50857 18.50857 0 1 1-18.559769 18.50217 18.559769 18.559769 0 0 1 18.572569-18.50217z m148.580552 0a18.50857 18.50857 0 1 1-18.559769 18.50217 18.559769 18.559769 0 0 1 18.572569-18.50217z m142.391829 0a18.50857 18.50857 0 1 1-18.559769 18.50217 18.559769 18.559769 0 0 1 18.572569-18.50217z m142.391829 0a18.50857 18.50857 0 1 1-18.559769 18.50217 18.559769 18.559769 0 0 1 18.572569-18.50217z m142.385429 0a18.50857 18.50857 0 1 1-18.559769 18.50217 18.559769 18.559769 0 0 1 18.572569-18.50217z m142.391829 0a18.50857 18.50857 0 1 1-18.559769 18.50217 18.559769 18.559769 0 0 1 18.55337-18.50217z m142.391829 0a18.50857 18.50857 0 1 1-18.559769 18.50217 18.559769 18.559769 0 0 1 18.572569-18.50217z m142.391829 0a18.50857 18.50857 0 1 1-18.559769 18.50217 18.559769 18.559769 0 0 1 18.566169-18.50217z m142.38543 0a18.50857 18.50857 0 1 1-18.55977 18.50217 18.559769 18.559769 0 0 1 18.572569-18.50217z m142.391829 0a18.50857 18.50857 0 1 1-18.55977 18.50217 18.559769 18.559769 0 0 1 18.585369-18.50217zM18.559769 703.223254a18.50857 18.50857 0 1 1-18.559769 18.50217 18.559769 18.559769 0 0 1 18.559769-18.50217z m142.391829 0a18.50857 18.50857 0 1 1-18.559769 18.50217 18.559769 18.559769 0 0 1 18.572569-18.50217z m142.385429 0a18.50857 18.50857 0 1 1-18.559769 18.50217 18.559769 18.559769 0 0 1 18.578969-18.50217z m142.391829 0a18.50857 18.50857 0 1 1-18.559769 18.50217 18.559769 18.559769 0 0 1 18.572569-18.50217z m142.391829 0a18.50857 18.50857 0 1 1-18.559769 18.50217 18.559769 18.559769 0 0 1 18.591769-18.50217z m142.391829 0a18.50857 18.50857 0 1 1-18.559769 18.50217 18.559769 18.559769 0 0 1 18.572569-18.50217z m142.385429 0a18.50857 18.50857 0 1 1-18.559769 18.50217 18.559769 18.559769 0 0 1 18.572569-18.50217z m142.391829 0a18.50857 18.50857 0 1 1-18.559769 18.50217 18.559769 18.559769 0 0 1 18.572569-18.50217z m142.391829 0a18.50857 18.50857 0 1 1-18.559769 18.50217 18.559769 18.559769 0 0 1 18.572569-18.50217z m148.580552 0a18.50857 18.50857 0 1 1-18.559769 18.50217 18.559769 18.559769 0 0 1 18.572569-18.50217z m142.391829 0a18.50857 18.50857 0 1 1-18.559769 18.50217 18.559769 18.559769 0 0 1 18.572569-18.50217z m142.391829 0a18.50857 18.50857 0 1 1-18.559769 18.50217 18.559769 18.559769 0 0 1 18.572569-18.50217z m142.385429 0a18.50857 18.50857 0 1 1-18.559769 18.50217 18.559769 18.559769 0 0 1 18.572569-18.50217z m142.391829 0a18.50857 18.50857 0 1 1-18.559769 18.50217 18.559769 18.559769 0 0 1 18.55337-18.50217z m142.391829 0a18.50857 18.50857 0 1 1-18.559769 18.50217 18.559769 18.559769 0 0 1 18.572569-18.50217z m142.391829 0a18.50857 18.50857 0 1 1-18.559769 18.50217 18.559769 18.559769 0 0 1 18.566169-18.50217z m142.38543 0a18.50857 18.50857 0 1 1-18.55977 18.50217 18.559769 18.559769 0 0 1 18.572569-18.50217z m142.391829 0a18.50857 18.50857 0 1 1-18.55977 18.50217 18.559769 18.559769 0 0 1 18.585369-18.50217zM18.559769 845.096689A18.50857 18.50857 0 1 1 0 863.605259a18.559769 18.559769 0 0 1 18.559769-18.50857z m142.391829 0a18.50857 18.50857 0 1 1-18.559769 18.50857 18.559769 18.559769 0 0 1 18.572569-18.50857z m142.385429 0a18.50857 18.50857 0 1 1-18.559769 18.50857 18.559769 18.559769 0 0 1 18.578969-18.50857z m142.391829 0a18.50857 18.50857 0 1 1-18.559769 18.50857 18.559769 18.559769 0 0 1 18.572569-18.50857z m142.391829 0a18.50857 18.50857 0 1 1-18.559769 18.50857 18.559769 18.559769 0 0 1 18.591769-18.50857z m142.391829 0a18.50857 18.50857 0 1 1-18.559769 18.50857 18.559769 18.559769 0 0 1 18.572569-18.50857z m142.385429 0a18.50857 18.50857 0 1 1-18.559769 18.50857 18.559769 18.559769 0 0 1 18.572569-18.50857z m142.391829 0a18.50857 18.50857 0 1 1-18.559769 18.50857 18.559769 18.559769 0 0 1 18.572569-18.50857z m142.391829 0a18.50857 18.50857 0 1 1-18.559769 18.50857 18.559769 18.559769 0 0 1 18.572569-18.50857z m148.580552 0a18.50857 18.50857 0 1 1-18.559769 18.50857 18.559769 18.559769 0 0 1 18.572569-18.50857z m142.391829 0a18.50857 18.50857 0 1 1-18.559769 18.50857 18.559769 18.559769 0 0 1 18.572569-18.50857z m142.391829 0a18.50857 18.50857 0 1 1-18.559769 18.50857 18.559769 18.559769 0 0 1 18.572569-18.50857z m142.385429 0a18.50857 18.50857 0 1 1-18.559769 18.50857 18.559769 18.559769 0 0 1 18.572569-18.50857z m142.391829 0a18.50857 18.50857 0 1 1-18.559769 18.50857 18.559769 18.559769 0 0 1 18.55337-18.50857z m142.391829 0a18.50857 18.50857 0 1 1-18.559769 18.50857 18.559769 18.559769 0 0 1 18.572569-18.50857z m142.391829 0a18.50857 18.50857 0 1 1-18.559769 18.50857 18.559769 18.559769 0 0 1 18.566169-18.50857z m142.38543 0a18.50857 18.50857 0 1 1-18.55977 18.50857 18.559769 18.559769 0 0 1 18.572569-18.50857z m142.391829 0a18.50857 18.50857 0 1 1-18.55977 18.50857 18.559769 18.559769 0 0 1 18.585369-18.50857zM18.559769 986.976524a18.50857 18.50857 0 1 1-18.559769 18.50217 18.559769 18.559769 0 0 1 18.559769-18.50217z m142.391829 0a18.50857 18.50857 0 1 1-18.559769 18.50217 18.559769 18.559769 0 0 1 18.572569-18.50217z m142.385429 0a18.50857 18.50857 0 1 1-18.559769 18.50217 18.559769 18.559769 0 0 1 18.578969-18.50217z m142.391829 0a18.50857 18.50857 0 1 1-18.559769 18.50217 18.559769 18.559769 0 0 1 18.572569-18.50217z m142.391829 0a18.50857 18.50857 0 1 1-18.559769 18.50217 18.559769 18.559769 0 0 1 18.591769-18.50217z m142.391829 0a18.50857 18.50857 0 1 1-18.559769 18.50217 18.559769 18.559769 0 0 1 18.572569-18.50217z m142.385429 0a18.50857 18.50857 0 1 1-18.559769 18.50217 18.559769 18.559769 0 0 1 18.572569-18.50217z m142.391829 0a18.50857 18.50857 0 1 1-18.559769 18.50217 18.559769 18.559769 0 0 1 18.572569-18.50217z m142.391829 0a18.50857 18.50857 0 1 1-18.559769 18.50217 18.559769 18.559769 0 0 1 18.572569-18.50217z m148.580552 0a18.50857 18.50857 0 1 1-18.559769 18.50217 18.559769 18.559769 0 0 1 18.572569-18.50217z m142.391829 0a18.50857 18.50857 0 1 1-18.559769 18.50217 18.559769 18.559769 0 0 1 18.572569-18.50217z m142.391829 0a18.50857 18.50857 0 1 1-18.559769 18.50217 18.559769 18.559769 0 0 1 18.572569-18.50217z m142.385429 0a18.50857 18.50857 0 1 1-18.559769 18.50217 18.559769 18.559769 0 0 1 18.572569-18.50217z m142.391829 0a18.50857 18.50857 0 1 1-18.559769 18.50217 18.559769 18.559769 0 0 1 18.55337-18.50217z m142.391829 0a18.50857 18.50857 0 1 1-18.559769 18.50217 18.559769 18.559769 0 0 1 18.572569-18.50217z m142.391829 0a18.50857 18.50857 0 1 1-18.559769 18.50217 18.559769 18.559769 0 0 1 18.566169-18.50217z m142.38543 0a18.50857 18.50857 0 1 1-18.55977 18.50217 18.559769 18.559769 0 0 1 18.572569-18.50217z m142.391829 0a18.50857 18.50857 0 1 1-18.55977 18.50217 18.559769 18.559769 0 0 1 18.585369-18.50217z" fill="#3f72d1" p-id="51223"></path></svg>