<?xml version="1.0" standalone="no"?><!DOCTYPE svg PUBLIC "-//W3C//DTD SVG 1.1//EN" "http://www.w3.org/Graphics/SVG/1.1/DTD/svg11.dtd"><svg t="1725027349525" class="icon" viewBox="0 0 1024 1024" version="1.1" xmlns="http://www.w3.org/2000/svg" p-id="16881" data-spm-anchor-id="a313x.search_index.0.i11.7a3c3a810ruwr7" xmlns:xlink="http://www.w3.org/1999/xlink" width="48" height="48"><path d="M597.866667 917.333333H725.333333V661.333333c0-117.824-95.509333-213.333333-213.333333-213.333333s-213.333333 95.509333-213.333333 213.333333v256h117.269333A128 128 0 0 1 384 832c0-55.957333 16.298667-82.517333 59.733333-120.832l0.810667-0.725333C480.170667 679.04 490.666667 661.76 490.666667 618.666667a21.333333 21.333333 0 0 1 32.725333-18.048C597.12 647.146667 640 708.053333 640 789.333333c0 50.858667-15.850667 96.682667-42.133333 128zM768 917.333333h85.333333V234.666667H170.666667v682.666666h85.333333V661.333333c0-141.376 114.624-256 256-256s256 114.624 256 256v256zM128 917.333333V234.666667a64 64 0 0 1-64-64V128a64 64 0 0 1 64-64h768a64 64 0 0 1 64 64v42.666667a64 64 0 0 1-64 64v682.666666h42.666667a21.333333 21.333333 0 0 1 0 42.666667H85.333333a21.333333 21.333333 0 0 1 0-42.666667h42.666667zM128 192h768a21.333333 21.333333 0 0 0 21.333333-21.333333V128a21.333333 21.333333 0 0 0-21.333333-21.333333H128a21.333333 21.333333 0 0 0-21.333333 21.333333v42.666667a21.333333 21.333333 0 0 0 21.333333 21.333333z m344.789333 550.442667l-0.832 0.725333C436.8 774.186667 426.666667 790.698667 426.666667 832c0 47.829333 37.013333 85.333333 85.333333 85.333333 46.506667 0 85.333333-55.061333 85.333333-128 0-53.632-23.616-96.277333-67.413333-131.776-6.869333 33.450667-24.448 56.021333-57.130667 84.885334z" fill="#2053D1" p-id="16882"></path></svg>